<svg width="26" height="26" viewBox="0 0 26 26" fill="none" xmlns="http://www.w3.org/2000/svg">
<path d="M5.53934 13.5751C5.53934 13.5751 4.95655 15.0806 5.1016 16.2102C5.24665 17.3399 6.04961 18.7672 6.85256 19.3415C7.65552 19.9159 8.38336 20.2136 8.45588 20.3529C8.5284 20.4923 8.82109 22.4539 8.72267 22.8698C8.62424 23.2858 7.91971 24.3563 8.04145 24.7723C8.16319 25.1882 8.64496 25.4501 9.88825 25.4268C11.5045 25.3973 11.419 25.1988 11.5408 24.3774C11.6237 23.8242 11.5175 19.9982 11.5175 19.9982C11.5175 19.9982 12.5147 20.0785 13.9237 19.9982C15.3328 19.918 17.0838 19.4028 17.0838 19.4028C17.0838 19.4028 18.081 21.9387 17.7391 22.7115C17.3998 23.4843 16.8403 23.9214 16.9361 24.4556C17.0345 24.9898 17.8841 25.2284 18.9306 25.1481C19.977 25.0679 20.7774 24.5147 20.8266 23.7799C20.8758 23.0472 20.8499 18.9847 20.9975 18.668C21.1426 18.3513 21.6787 17.2617 21.6295 16.1701C21.5803 15.0784 21.4845 14.6435 21.4845 14.6435C21.4845 14.6435 22.7407 14.2529 23.9037 13.535C24.7895 12.9881 25.4552 12.2681 25.8101 11.1954C26.3929 9.43233 25.5925 7.68824 23.9866 7.0928C22.4428 6.52059 20.9224 6.73596 20.8758 7.64813C20.8292 8.56029 21.8238 8.36181 22.5775 8.59829C23.3313 8.83689 24.1808 9.92642 23.2821 10.9969C22.3833 12.0675 20.8033 12.4032 20.3163 12.4433C19.8293 12.4834 18.9306 11.869 17.0579 11.8289C15.1852 11.7888 12.4888 12.8994 12.4137 12.76C12.3411 12.6207 15.0867 11.1743 15.281 9.29297C15.4623 7.54889 15.0142 6.73596 15.0142 6.73596C15.0142 6.73596 14.6749 3.7841 14.1879 2.39686C13.701 1.00961 13.0275 -0.0207962 12.5898 0.000318702C12.1521 0.0193221 10.743 1.26932 10.2327 1.88377C9.72248 2.49821 9.163 3.4885 9.163 3.4885C9.163 3.4885 6.98725 3.42304 6.02629 3.70598C5.15081 3.96358 4.1536 4.39855 3.52159 5.21147C2.88959 6.02439 2.69533 6.49948 2.40264 6.61772C2.10995 6.73596 0.724201 6.97456 0.602463 7.11392C0.480725 7.25328 0.164723 9.09661 0.237248 9.37321C0.309773 9.64982 0.366757 10.2959 0.770824 10.6612C1.23188 11.0772 2.50883 11.7803 3.519 12.3061C4.4955 12.8128 5.4435 13.2182 5.53934 13.5751Z" fill="#FFB800"/>
</svg>
