<svg width="" height="" viewBox="0 0 109 46" fill="none" xmlns="http://www.w3.org/2000/svg">
<rect x="0.5" y="0.5" width="108" height="45" rx="9.5" fill="white" stroke="#E7EDFD"/>
<rect x="7" y="6" width="40" height="35" rx="10" fill="#F8FAFD"/>
<path d="M23.6299 30.4292L25.3866 28.6292C24.7728 28.4959 24.1881 28.2529 23.6606 27.9117L23.6299 30.4292Z" fill="#0D75FF"/>
<path d="M29.3699 16.571L27.6136 18.3708C28.2275 18.5042 28.8122 18.7474 29.3396 19.0885L29.3699 16.571Z" fill="#0D75FF"/>
<path d="M21.371 24.6135L19.5708 26.3698L22.0883 26.3393C21.7472 25.8119 21.5042 25.2273 21.371 24.6135Z" fill="#0D75FF"/>
<path d="M31.629 22.3868L33.4292 20.63L30.9117 20.6608C31.2528 21.1882 31.4958 21.7729 31.629 22.3868Z" fill="#0D75FF"/>
<path d="M22.0885 20.6605L19.571 20.6298L21.3713 22.3865C21.5042 21.7726 21.7472 21.1878 22.0885 20.6605Z" fill="#0D75FF"/>
<path d="M30.9115 26.3395L33.429 26.37L31.6287 24.6135C31.4958 25.2274 31.2528 25.8122 30.9115 26.3395Z" fill="#0D75FF"/>
<path d="M25.3866 18.3708L23.6299 16.5708L23.6606 19.0883C24.1881 18.7472 24.7728 18.5041 25.3866 18.3708Z" fill="#0D75FF"/>
<path d="M27.6132 28.6292L29.3699 30.429L29.3391 27.9117C28.8116 28.2528 28.2269 28.4958 27.6132 28.6292Z" fill="#0D75FF"/>
<path d="M22.188 26.4905L21.1963 28.8032L23.5093 27.812C22.9937 27.4536 22.5463 27.0061 22.188 26.4905Z" fill="#0D75FF"/>
<path d="M30.8119 20.5098L31.8031 18.1968L29.4906 19.188C30.0061 19.5465 30.4536 19.9941 30.8119 20.5098Z" fill="#0D75FF"/>
<path d="M21.25 23.5001C21.25 23.1806 21.2833 22.8691 21.338 22.5648L19 23.4998L21.338 24.4348C21.2809 24.1265 21.2514 23.8137 21.25 23.5001Z" fill="#0D75FF"/>
<path d="M34 23.5001L31.662 22.5648C31.7167 22.8691 31.75 23.1806 31.75 23.5001C31.75 23.8198 31.7167 24.1313 31.662 24.4353L34 23.5001Z" fill="#0D75FF"/>
<path d="M23.5098 19.1878L21.1968 18.1965L22.188 20.5095C22.5466 19.9939 22.9942 19.5464 23.5098 19.1878Z" fill="#0D75FF"/>
<path d="M29.4901 27.812L31.8031 28.8032L30.8119 26.4905C30.4533 27.006 30.0057 27.4536 29.4901 27.812Z" fill="#0D75FF"/>
<path d="M27.4348 18.338L26.4998 16L25.5648 18.338C25.8686 18.2833 26.1801 18.25 26.4998 18.25C26.8196 18.25 27.1311 18.2833 27.4348 18.338Z" fill="#0D75FF"/>
<path d="M25.5649 28.662L26.4999 31L27.4349 28.662C27.1312 28.7167 26.8197 28.75 26.4999 28.75C26.1802 28.75 25.8687 28.7167 25.5649 28.662Z" fill="#0D75FF"/>
<path d="M26.5 28.25C29.1233 28.25 31.2499 26.1234 31.2499 23.5C31.2499 20.8766 29.1233 18.75 26.5 18.75C23.8766 18.75 21.75 20.8766 21.75 23.5C21.75 26.1234 23.8766 28.25 26.5 28.25Z" fill="#0D75FF"/>
<path d="M70.6255 16.26C70.717 16.3712 70.7731 16.5073 70.7865 16.6507C70.7999 16.7941 70.7699 16.9382 70.7005 17.0644C70.1585 18.0596 69.8754 19.1751 69.8773 20.3083C69.8773 24.0781 72.9507 27.1308 76.7386 27.1308C77.2327 27.1308 77.7137 27.0792 78.1759 26.9808C78.3176 26.9501 78.4652 26.9618 78.6003 27.0145C78.7353 27.0672 78.8519 27.1585 78.9354 27.277C79.0235 27.4003 79.0684 27.5492 79.0632 27.7006C79.0579 27.852 79.0028 27.9974 78.9063 28.1142C78.1709 29.0175 77.2433 29.7453 76.1909 30.2445C75.1385 30.7437 73.988 31.0018 72.8232 31C68.501 31 65 27.518 65 23.2278C65 19.9989 66.9821 17.2294 69.8042 16.0556C69.9448 15.9962 70.1008 15.984 70.2489 16.0209C70.397 16.0577 70.5292 16.1416 70.6255 16.26ZM69.5548 17.2285C68.4696 17.8105 67.5625 18.6757 66.9297 19.732C66.2969 20.7884 65.9622 21.9964 65.961 23.2278C65.961 26.9967 69.0354 30.0493 72.8232 30.0493C73.7303 30.0509 74.6287 29.8726 75.4663 29.5246C76.304 29.1767 77.0644 28.6661 77.7034 28.0224C77.3874 28.0617 77.0658 28.0814 76.7386 28.0814C72.4163 28.0814 68.9163 24.5994 68.9163 20.3092C68.9163 19.2151 69.1432 18.1735 69.5548 17.2285Z" fill="#AEB2C5"/>
<path d="M75.1204 18.9508C75.1338 18.9102 75.1597 18.8749 75.1944 18.8499C75.2291 18.8248 75.2707 18.8113 75.3135 18.8113C75.3563 18.8113 75.398 18.8248 75.4326 18.8499C75.4673 18.8749 75.4932 18.9102 75.5067 18.9508L75.8695 20.0402C76.0317 20.5259 76.4124 20.9065 76.898 21.0687L77.9875 21.4316C78.0281 21.445 78.0635 21.4709 78.0885 21.5056C78.1135 21.5402 78.127 21.5819 78.127 21.6247C78.127 21.6675 78.1135 21.7091 78.0885 21.7438C78.0635 21.7785 78.0281 21.8044 77.9875 21.8178L76.898 22.1806C76.6585 22.2604 76.4409 22.3949 76.2623 22.5735C76.0838 22.752 75.9493 22.9696 75.8695 23.2091L75.5067 24.2985C75.4932 24.3391 75.4673 24.3745 75.4326 24.3995C75.398 24.4246 75.3563 24.438 75.3135 24.438C75.2707 24.438 75.2291 24.4246 75.1944 24.3995C75.1597 24.3745 75.1338 24.3391 75.1204 24.2985L74.7575 23.2091C74.6777 22.9696 74.5432 22.752 74.3647 22.5735C74.1862 22.3949 73.9685 22.2604 73.729 22.1806L72.6395 21.8178C72.5989 21.8044 72.5636 21.7785 72.5385 21.7438C72.5135 21.7091 72.5 21.6675 72.5 21.6247C72.5 21.5819 72.5135 21.5402 72.5385 21.5056C72.5636 21.4709 72.5989 21.445 72.6395 21.4316L73.729 21.0687C73.9685 20.9889 74.1862 20.8544 74.3647 20.6759C74.5432 20.4974 74.6777 20.2798 74.7575 20.0402L75.1204 18.9508ZM77.9978 16.0923C78.0071 16.0656 78.0244 16.0424 78.0475 16.026C78.0705 16.0097 78.098 16.0009 78.1263 16.0009C78.1545 16.0009 78.1821 16.0097 78.2051 16.026C78.2281 16.0424 78.2455 16.0656 78.2547 16.0923L78.4966 16.8179C78.6045 17.1423 78.8585 17.3964 79.1829 17.5042L79.9086 17.7461C79.9353 17.7553 79.9585 17.7727 79.9749 17.7957C79.9912 17.8187 80.0001 17.8463 80.0001 17.8745C80.0001 17.9028 79.9912 17.9303 79.9749 17.9534C79.9585 17.9764 79.9353 17.9937 79.9086 18.003L79.1829 18.2449C79.0231 18.298 78.8778 18.3878 78.7587 18.5069C78.6395 18.626 78.5498 18.7713 78.4966 18.9311L78.2547 19.6568C78.2455 19.6835 78.2281 19.7066 78.2051 19.723C78.1821 19.7394 78.1545 19.7482 78.1263 19.7482C78.098 19.7482 78.0705 19.7394 78.0475 19.723C78.0244 19.7066 78.0071 19.6835 77.9978 19.6568L77.7559 18.9311C77.7027 18.7713 77.613 18.626 77.4939 18.5069C77.3748 18.3878 77.2295 18.298 77.0696 18.2449L76.3439 18.003C76.3172 17.9937 76.2941 17.9764 76.2777 17.9534C76.2613 17.9303 76.2525 17.9028 76.2525 17.8745C76.2525 17.8463 76.2613 17.8187 76.2777 17.7957C76.2941 17.7727 76.3172 17.7553 76.3439 17.7461L77.0696 17.5042C77.394 17.3964 77.6481 17.1423 77.7559 16.8179L77.9978 16.0932V16.0923Z" fill="#AEB2C5"/>
</svg>
